<?xml version="1.0" standalone="no"?>
<!DOCTYPE svg PUBLIC "-//W3C//DTD SVG 20010904//EN"
 "http://www.w3.org/TR/2001/REC-SVG-20010904/DTD/svg10.dtd">
<svg version="1.0" xmlns="http://www.w3.org/2000/svg"
 width="400.000000pt" height="400.000000pt" viewBox="0 0 400.000000 400.000000"
 preserveAspectRatio="xMidYMid meet">
<metadata>
Created by potrace 1.14, written by Peter Selinger 2001-2017
</metadata>
<g transform="translate(0.000000,400.000000) scale(0.100000,-0.100000)"
fill="#000000" stroke="none">
<path d="M1915 3373 c-16 -2 -47 -9 -67 -14 l-38 -10 -1 -57 c-1 -124 3 -187
14 -194 8 -5 4 -17 -12 -38 -28 -39 -41 -82 -30 -102 4 -8 9 -173 10 -367 1
-311 -1 -354 -15 -370 -9 -10 -16 -21 -16 -26 0 -4 -17 -27 -38 -50 -22 -22
-52 -63 -68 -91 l-29 -49 -3 -660 c-2 -363 -1 -674 3 -691 11 -64 72 -100 204
-121 59 -10 284 -10 336 -1 142 26 166 37 190 84 20 39 21 53 19 697 -2 485
-6 667 -15 694 -14 44 -40 83 -86 133 -18 19 -42 53 -53 75 -18 38 -19 57 -14
395 2 195 5 368 5 383 0 16 -12 42 -26 59 -18 21 -23 34 -15 42 5 7 10 57 11
112 2 148 4 139 -41 153 -43 13 -176 21 -225 14z"/>
</g>
</svg>
